<mxfile host="app.diagrams.net" modified="2024-03-07T04:50:30.566Z" agent="Mozilla/5.0 (Windows NT 10.0; Win64; x64) AppleWebKit/537.36 (KHTML, like Gecko) Chrome/122.0.0.0 Safari/537.36" version="23.1.4" etag="o16t9Bi4xt1LizwyUFNU" type="github">
  <diagram name="Page-1" id="jO4lyaZgZzPZauOW-aRu">
    <mxGraphModel>
      <root>
        <mxCell id="0" />
        <mxCell id="1" parent="0" />
      </root>
    </mxGraphModel>
  </diagram>
</mxfile>
